<?xml version="1.0" encoding="iso-8859-1"?>
<!-- Generator: Adobe Illustrator 19.0.0, SVG Export Plug-In . SVG Version: 6.00 Build 0)  -->
<svg version="1.1" id="Capa_1" xmlns="http://www.w3.org/2000/svg" xmlns:xlink="http://www.w3.org/1999/xlink" x="0px" y="0px"
	 viewBox="0 0 512 512" style="enable-background:new 0 0 512 512;" xml:space="preserve" fill="#607d8b">
<g>
	<g>
		<path d="M331.298,47.187H180.709c-8.317,0-15.059,6.742-15.059,15.059s6.742,15.059,15.059,15.059h150.588
			c8.317,0,15.059-6.742,15.059-15.059S339.614,47.187,331.298,47.187z"/>
	</g>
</g>
<g>
	<g>
		<path d="M138.545,378.482c-7.877,0-15.423,6.926-15.059,15.059c0.365,8.159,6.617,15.059,15.059,15.059
			c7.877,0,15.423-6.926,15.059-15.059C153.238,385.382,146.987,378.482,138.545,378.482z"/>
	</g>
</g>
<g>
	<g>
		<path d="M382.498,380.49c-7.877,0-15.423,6.926-15.059,15.059c0.365,8.159,6.617,15.059,15.059,15.059
			c7.877,0,15.423-6.926,15.059-15.059C397.191,387.39,390.94,380.49,382.498,380.49z"/>
	</g>
</g>
<g>
	<g>
		<path d="M495.272,123.987c-8.316,0-15.059,6.742-15.059,15.059v15.561h-19.328V39.657C460.885,17.79,443.094,0,421.228,0H90.773
			C68.906,0,51.116,17.79,51.116,39.657v114.95H31.788v-15.561c0-8.316-6.742-15.059-15.059-15.059
			c-8.316,0-15.059,6.742-15.059,15.059v61.239c0,8.317,6.742,15.059,15.059,15.059c8.317,0,15.059-6.742,15.059-15.059v-15.561
			h19.328v151.298v91.148c0,21.727,17.566,39.42,39.24,39.646v30.125c0,8.316,6.742,15.059,15.059,15.059h78.306
			c8.316,0,15.059-6.742,15.059-15.059v-30.115h114.447v30.115c0,8.316,6.742,15.059,15.059,15.059h78.306
			c8.316,0,15.059-6.742,15.059-15.059v-30.125c21.672-0.229,39.234-17.921,39.234-39.646v-91.148V184.725h19.328v15.561
			c0,8.316,6.742,15.059,15.059,15.059s15.059-6.742,15.059-15.059v-61.239C510.331,130.73,503.589,123.987,495.272,123.987z
			 M81.234,126.163h159.711v194.801H81.234V126.163z M168.662,481.882h-48.188v-15.056h48.188V481.882z M391.533,481.882h-48.188
			v-15.056h48.188V481.882z M430.767,427.171c0,5.26-4.28,9.538-9.539,9.538H90.773c-5.26,0-9.539-4.279-9.539-9.538v-76.089
			h349.533V427.171z M271.062,320.964V126.163h159.705v194.801H271.062z M430.767,96.045H81.234V39.657
			c0-5.26,4.279-9.539,9.539-9.539h330.455c5.26,0,9.539,4.28,9.539,9.539V96.045z"/>
	</g>
</g>
<g>
</g>
<g>
</g>
<g>
</g>
<g>
</g>
<g>
</g>
<g>
</g>
<g>
</g>
<g>
</g>
<g>
</g>
<g>
</g>
<g>
</g>
<g>
</g>
<g>
</g>
<g>
</g>
<g>
</g>
</svg>
