<?xml version="1.0" encoding="iso-8859-1"?>
<!-- Generator: Adobe Illustrator 19.0.0, SVG Export Plug-In . SVG Version: 6.00 Build 0)  -->
<svg version="1.1" id="Capa_1" xmlns="http://www.w3.org/2000/svg" xmlns:xlink="http://www.w3.org/1999/xlink" x="0px" y="0px"
	 viewBox="0 0 512 512" style="enable-background:new 0 0 512 512;" xml:space="preserve" fill="#fff">
<g>
	<g>
		<path d="M477.857,169.096V87.569c0-32.596-26.52-59.116-59.117-59.116H59.116C26.519,28.452,0,54.971,0,87.569v336.863
			c0,32.596,26.519,59.116,59.116,59.116H418.74c32.596,0,59.117-26.519,59.117-59.116v-81.52
			c19.905-7.31,34.143-26.455,34.143-48.862v-76.091C512,195.551,497.761,176.405,477.857,169.096z M447.323,424.432
			c0,15.759-12.823,28.582-28.583,28.582H59.116c-15.76,0-28.582-12.823-28.582-28.583V87.569c0-15.76,12.822-28.582,28.582-28.582
			H418.74c15.76,0,28.583,12.822,28.583,28.582v78.359h-68.676c-49.669,0-90.077,40.409-90.077,90.077
			c0,49.669,40.409,90.077,90.077,90.077h68.676V424.432z M481.467,294.049c0,11.854-9.644,21.499-21.498,21.499h-81.319
			c-32.832,0-59.544-26.712-59.544-59.544c0-32.832,26.712-59.544,59.544-59.544h81.319c11.854,0,21.498,9.644,21.498,21.498
			V294.049z"/>
	</g>
</g>
<g>
	<g>
		<path d="M385.767,209.696c-25.534,0-46.308,20.774-46.308,46.308c0,25.534,20.774,46.308,46.308,46.308
			c25.534,0,46.308-20.774,46.308-46.308C432.075,230.47,411.301,209.696,385.767,209.696z M385.767,271.778
			c-8.698,0-15.774-7.077-15.774-15.774c0-8.698,7.077-15.775,15.774-15.775c8.698,0,15.775,7.077,15.775,15.775
			C401.542,264.701,394.465,271.778,385.767,271.778z"/>
	</g>
</g>
<g>
</g>
<g>
</g>
<g>
</g>
<g>
</g>
<g>
</g>
<g>
</g>
<g>
</g>
<g>
</g>
<g>
</g>
<g>
</g>
<g>
</g>
<g>
</g>
<g>
</g>
<g>
</g>
<g>
</g>
</svg>
