<?xml version="1.0" encoding="iso-8859-1"?>
<!-- Generator: Adobe Illustrator 19.0.0, SVG Export Plug-In . SVG Version: 6.00 Build 0)  -->
<svg version="1.1" id="Capa_1" xmlns="http://www.w3.org/2000/svg" xmlns:xlink="http://www.w3.org/1999/xlink" x="0px" y="0px"
	 viewBox="0 0 512 512" style="enable-background:new 0 0 512 512;" xml:space="preserve" fill="#fff">
<g>
	<g>
		<path d="M287.836,316.548c0-8.016-3.122-15.553-8.79-21.221l-62.373-62.375c-5.669-5.669-13.205-8.789-21.222-8.789
			s-15.552,3.122-21.221,8.789l-37.586,37.585l-38.428-0.802c-4.144-0.091-8.063,1.506-10.964,4.408l-59.528,59.529
			c-5.882,5.882-5.882,15.417,0,21.299l19.564,19.564L4.412,417.411c-5.882,5.882-5.882,15.417,0,21.299l68.879,68.879
			C76.115,510.413,79.946,512,83.94,512c3.994,0,7.826-1.587,10.649-4.412l42.877-42.877l19.563,19.563
			c2.941,2.941,6.795,4.412,10.649,4.412c3.854,0,7.709-1.471,10.649-4.412l59.529-59.529c2.902-2.902,4.494-6.861,4.409-10.963
			l-0.803-38.429l37.585-37.584C284.714,332.1,287.836,324.564,287.836,316.548z M83.94,475.639l-47.58-47.58l64.221-64.22
			l47.58,47.58L83.94,475.639z M215.622,358.595c-2.902,2.902-4.494,6.861-4.409,10.963l0.803,38.429l-44.338,44.337l-8.914-8.914
			l21.344-21.344c5.882-5.882,5.882-15.417,0-21.299l-68.879-68.879c-2.824-2.824-6.655-4.412-10.649-4.412
			c-3.994,0-7.826,1.587-10.649,4.412l-21.344,21.346l-8.914-8.914l44.337-44.337l38.428,0.802
			c4.139,0.103,8.064-1.506,10.964-4.408l42.05-42.048l62.217,62.218L215.622,358.595z"/>
	</g>
</g>
<g>
	<g>
		<path d="M226.749,305.002l-19.757-19.757c-5.881-5.882-15.417-5.882-21.299,0c-5.882,5.882-5.882,15.417,0.001,21.299
			l19.757,19.757c2.941,2.941,6.795,4.412,10.649,4.412c3.854,0,7.709-1.47,10.649-4.412
			C232.63,320.419,232.63,310.884,226.749,305.002z"/>
	</g>
</g>
<g>
	<g>
		<path d="M507.588,73.291L438.71,4.412C435.885,1.587,432.055,0,428.06,0s-7.826,1.587-10.649,4.412l-45.339,45.339l-9.073-9.073
			c-5.881-5.882-15.417-5.882-21.299,0l-62.686,62.685c-1.343,1.343-2.421,2.929-3.174,4.672l-30.048,69.491
			c-2.451,5.669-1.193,12.259,3.174,16.627l68.875,68.874c2.884,2.884,6.736,4.412,10.653,4.412c2.014,0,4.046-0.405,5.972-1.237
			l69.497-30.043c1.744-0.754,3.329-1.831,4.673-3.175l62.685-62.685c5.882-5.882,5.882-15.417,0-21.299l-9.073-9.073l45.339-45.339
			C513.47,88.708,513.47,79.172,507.588,73.291z M389.372,209.652l-57.466,24.842L277.5,180.089l24.846-57.461l50.003-50.002
			l87.024,87.023L389.372,209.652z M440.951,118.629l-47.58-47.58l34.69-34.69l47.58,47.58L440.951,118.629z"/>
	</g>
</g>
<g>
</g>
<g>
</g>
<g>
</g>
<g>
</g>
<g>
</g>
<g>
</g>
<g>
</g>
<g>
</g>
<g>
</g>
<g>
</g>
<g>
</g>
<g>
</g>
<g>
</g>
<g>
</g>
<g>
</g>
</svg>
