<?xml version="1.0" encoding="iso-8859-1"?>
<!-- Generator: Adobe Illustrator 19.0.0, SVG Export Plug-In . SVG Version: 6.00 Build 0)  -->
<svg version="1.1" id="Capa_1" xmlns="http://www.w3.org/2000/svg" xmlns:xlink="http://www.w3.org/1999/xlink" x="0px" y="0px"
	 viewBox="0 0 511.998 511.998" style="enable-background:new 0 0 511.998 511.998;" xml:space="preserve" fill="#607d8b">
<g>
	<g>
		<g>
			<path d="M494.42,210.555c-9.501-9.501-21.967-15.505-35.177-17.131c-33.932-55.078-84.5-104.6-143.687-140.706
				c-1.632-13.2-7.634-25.66-17.128-35.154c-23.402-23.403-61.481-23.403-84.885,0c-9.875,9.876-15.935,22.848-17.289,36.576
				C128.569,96.985,93.685,131.116,54.139,193.264c-13.732,1.352-26.71,7.414-36.588,17.291c-23.402,23.403-23.402,61.481,0,84.885
				c9.497,9.497,21.958,15.5,35.162,17.13c36.003,58.814,88.853,112.755,143.697,146.677c1.626,13.213,7.63,25.684,17.132,35.187
				c11.701,11.701,27.072,17.552,42.442,17.552s30.74-5.85,42.442-17.552c9.879-9.879,15.941-22.857,17.291-36.594
				c62.095-39.599,99.324-77.627,142.121-145.11c13.73-1.354,26.704-7.416,36.579-17.29c11.337-11.337,17.581-26.41,17.581-42.443
				C511.998,236.965,505.757,221.891,494.42,210.555z M473.199,274.218c-6.04,6.04-14.397,9.231-22.941,8.741
				c-5.474-0.308-10.695,2.396-13.594,7.059c-43.995,70.761-78.903,106.398-143.658,146.658c-4.663,2.899-7.37,8.113-7.059,13.595
				c0.484,8.539-2.701,16.9-8.741,22.941c-11.701,11.701-30.74,11.7-42.442,0c-5.932-5.932-9.047-13.82-8.774-22.211
				c0.179-5.501-2.667-10.658-7.416-13.439c-55.257-32.352-109.146-87.364-144.153-147.154c-2.698-4.608-7.632-7.424-12.947-7.424
				c-0.164,0-0.328,0.002-0.492,0.008c-8.394,0.276-16.279-2.842-22.21-8.774c-11.701-11.701-11.701-30.74,0-42.442
				c6.041-6.041,14.402-9.232,22.94-8.741c5.472,0.302,10.696-2.396,13.595-7.059c40.363-64.918,72.585-96.468,143.658-140.656
				c4.663-2.899,7.371-8.113,7.059-13.595c-0.485-8.538,2.7-16.899,8.74-22.94c11.701-11.7,30.741-11.701,42.442,0
				c5.932,5.933,9.048,13.82,8.774,22.21c-0.18,5.501,2.666,10.659,7.416,13.44c60.354,35.337,111.549,85.466,144.153,141.152
				c2.78,4.749,7.924,7.597,13.439,7.416c8.396-0.278,16.278,2.841,22.211,8.774c5.668,5.668,8.79,13.205,8.79,21.221
				C481.99,261.014,478.867,268.549,473.199,274.218z"/>
			<path d="M322.138,311.411c-32.504-14.546-51.146-34.014-51.146-53.412c0-19.398,18.642-38.867,51.146-53.412
				c4.641-2.077,7.914-6.361,8.697-11.385c0.782-5.023-1.03-10.102-4.819-13.492c-19.273-17.25-44.143-26.75-70.03-26.75
				c-57.919,0-105.039,47.121-105.039,105.039c0,57.919,47.121,105.039,105.039,105.039c25.887,0,50.757-9.501,70.03-26.75
				c3.788-3.39,5.602-8.469,4.819-13.492C330.052,317.774,326.778,313.488,322.138,311.411z M255.986,333.027
				c-41.37,0-75.028-33.658-75.028-75.028c0-41.37,33.658-75.028,75.028-75.028c10.683,0,21.123,2.265,30.689,6.552
				c-10.071,6.366-18.625,13.381-25.57,20.983c-13.166,14.409-20.125,30.831-20.125,47.493c0,16.661,6.959,33.083,20.125,47.493
				c6.946,7.602,15.5,14.616,25.57,20.983C277.109,330.763,266.669,333.027,255.986,333.027z"/>
		</g>
	</g>
</g>
<g>
</g>
<g>
</g>
<g>
</g>
<g>
</g>
<g>
</g>
<g>
</g>
<g>
</g>
<g>
</g>
<g>
</g>
<g>
</g>
<g>
</g>
<g>
</g>
<g>
</g>
<g>
</g>
<g>
</g>
</svg>
