<?xml version="1.0" encoding="iso-8859-1"?>
<!-- Generator: Adobe Illustrator 19.0.0, SVG Export Plug-In . SVG Version: 6.00 Build 0)  -->
<svg version="1.1" id="Capa_1" xmlns="http://www.w3.org/2000/svg" xmlns:xlink="http://www.w3.org/1999/xlink" x="0px" y="0px"
	 viewBox="0 0 512 512" style="enable-background:new 0 0 512 512;" xml:space="preserve" fill="#fff">
<g>
	<g>
		<path d="M350.67,90.08h-28.663V41.226C322.007,18.494,303.513,0,280.78,0h-49.56c-22.733,0-41.226,18.494-41.226,41.226v48.854
			H161.33c-32.721,0-59.342,26.621-59.342,59.342v264.685c0,31.569,24.782,57.452,55.911,59.236v23.389
			c0,8.432,6.836,15.268,15.268,15.268s15.268-6.836,15.268-15.268v-23.282h135.127v23.282c0,8.432,6.836,15.268,15.268,15.268
			c8.432,0,15.268-6.836,15.268-15.268v-23.389c31.13-1.784,55.912-27.666,55.912-59.236V149.423
			C410.012,116.7,383.391,90.08,350.67,90.08z M220.529,41.226L220.529,41.226c0.001-5.895,4.796-10.689,10.69-10.689h49.56
			c5.895,0,10.69,4.795,10.69,10.689v48.854h-70.94V41.226z M379.475,414.107c0,15.883-12.921,28.805-28.805,28.805h-189.34
			c-15.883,0-28.805-12.922-28.805-28.805V149.423c0-15.883,12.922-28.805,28.805-28.805h189.34
			c15.883,0,28.805,12.922,28.805,28.805V414.107z"/>
	</g>
</g>
<g>
</g>
<g>
</g>
<g>
</g>
<g>
</g>
<g>
</g>
<g>
</g>
<g>
</g>
<g>
</g>
<g>
</g>
<g>
</g>
<g>
</g>
<g>
</g>
<g>
</g>
<g>
</g>
<g>
</g>
</svg>
