<svg height="512pt" viewBox="-34 0 512 512" width="512pt" xmlns="http://www.w3.org/2000/svg" fill="#14306f"><path d="m429.074219 120h-45.074219v-45c0-8.28125-6.714844-15-15-15h-79.785156l-55.609375-55.605469c-2.8125-2.816406-6.625-4.394531-10.605469-4.394531h-208c-8.285156 0-15 6.714844-15 15v362c0 8.285156 6.714844 15 15 15h45v45c0 8.28125 6.714844 15 15 15h45.074219v45c0 8.285156 6.714843 15 15 15h294c8.28125 0 15-6.714844 15-15v-362c0-8.285156-6.714844-15-15-15zm-195.074219-72.785156 48.789062 48.785156h-48.789062zm-204-17.214844h174v81c0 8.285156 6.714844 15 15 15h75v236h-264zm60 362h219c8.285156 0 15-6.714844 15-15v-276c0-3.980469-1.582031-7.792969-4.394531-10.605469l-.394531-.394531h34.789062v332h-264zm324.074219 90h-264v-30h218.925781c8.285156 0 15-6.71875 15-15v-287h30.074219zm0 0"/><path d="m75 90h60.035156c8.285156 0 15-6.714844 15-15 0-8.28125-6.714844-15-15-15h-60.035156c-8.285156 0-15 6.71875-15 15 0 8.285156 6.714844 15 15 15zm0 0"/><path d="m75 150h59.902344c8.28125 0 15-6.714844 15-15s-6.71875-15-15-15h-59.902344c-8.285156 0-15 6.714844-15 15s6.714844 15 15 15zm0 0"/><path d="m233.5 180h-158.5c-8.285156 0-15 6.714844-15 15s6.714844 15 15 15h158.5c8.285156 0 15-6.714844 15-15s-6.714844-15-15-15zm0 0"/><path d="m233.5 240h-158.5c-8.285156 0-15 6.714844-15 15s6.714844 15 15 15h158.5c8.285156 0 15-6.714844 15-15s-6.714844-15-15-15zm0 0"/><path d="m233.5 300h-158.5c-8.285156 0-15 6.714844-15 15s6.714844 15 15 15h158.5c8.285156 0 15-6.714844 15-15s-6.714844-15-15-15zm0 0"/></svg>