<svg height="512pt" viewBox="0 -19 512 512" width="512pt" xmlns="http://www.w3.org/2000/svg" fill="#fff"><path d="m348.261719 385c23.644531 19.773438 45.503906 46.5 55.332031 67.730469 3.460938 7.507812.183594 16.402343-7.324219 19.863281-7.808593 3.601562-244.449219 1.402344-274.269531 1.40625-10.726562 0-18.808594-11.28125-13.109375-22.292969 7.769531-16.210937 23.367187-37.363281 43.089844-56.1875 3.765625-3.59375 7.695312-7.117187 11.757812-10.519531h-148.738281c-8.285156 0-15-6.714844-15-15v-355c0-8.285156 6.714844-15 15-15h482c8.285156 0 15 6.714844 15 15v355c0 8.285156-6.714844 15-15 15zm-43.261719-278.996094v54.925782c0 10.71875-11.375 19.007812-22.605469 12.929687l-26.394531-13.070313-27.378906 13.554688c-10.058594 4.972656-21.59375-2.558594-21.585938-13.417969l-.035156-54.921875h-37v172h172v-172zm-30 2h-38v28.800782l12.378906-6.128907c4.027344-1.984375 8.902344-2.140625 13.242188 0l12.378906 6.128907zm-120-32.003906c-8.285156 0-15 6.71875-15 15v202c0 8.285156 6.714844 15 15 15h202c8.285156 0 15-6.714844 15-15v-202c0-8.28125-6.714844-15-15-15zm63.320312 309c-26.328124 12.019531-52.453124 36.023438-69.578124 59h214.519531c-6.507813-8.734375-14.625-17.984375-23.863281-26.800781-13.597657-12.976563-29.371094-24.761719-45.65625-32.199219zm263.679688-355h-452v325h452zm0 0" fill-rule="evenodd"/></svg>