<?xml version="1.0" encoding="UTF-8" ?>
<!DOCTYPE svg PUBLIC "-//W3C//DTD SVG 1.1//EN" "http://www.w3.org/Graphics/SVG/1.1/DTD/svg11.dtd">
<svg width="20pt" height="20pt" viewBox="0 0 20 20" version="1.1" xmlns="http://www.w3.org/2000/svg">
<g id="#aab9c0ff">
<path fill="#3c4042" opacity="1.00" d=" M 0.38 0.00 L 19.62 0.00 C 19.72 0.08 19.91 0.23 20.00 0.31 L 20.00 15.34 C 17.46 16.55 14.64 16.16 11.93 16.16 C 8.83 16.19 6.64 18.65 4.06 20.00 L 4.01 20.00 C 4.01 18.83 4.00 17.66 4.00 16.49 C 2.66 16.14 1.32 15.78 0.00 15.35 L 0.00 0.31 C 0.09 0.23 0.28 0.08 0.38 0.00 M 2.06 2.06 C 2.06 6.08 2.06 10.10 2.06 14.12 C 3.38 14.12 4.71 14.12 6.03 14.12 C 6.05 14.66 6.08 15.73 6.10 16.26 C 9.31 13.12 13.99 14.29 18.00 14.13 C 18.00 10.10 18.00 6.08 18.00 2.05 C 12.69 2.06 7.37 2.06 2.06 2.06 Z" />
</g>
</svg>
